<svg width="60" height="40" viewBox="0 0 60 40" fill="none" xmlns="http://www.w3.org/2000/svg">
<path d="M17.8166 3.7395H15.0035V1.876C15.0035 1.37846 14.7071 0.901287 14.1795 0.549468C13.6519 0.19765 12.9364 0 12.1903 0C11.4442 0 10.7287 0.19765 10.2011 0.549468C9.67354 0.901287 9.37716 1.37846 9.37716 1.876V3.7395L0 9.99284L5.6263 13.7448L15.0035 7.4915H17.8166C18.5627 7.4915 19.2782 7.29385 19.8058 6.94203C20.3334 6.59021 20.6297 6.11304 20.6297 5.6155C20.6297 5.11795 20.3334 4.64078 19.8058 4.28897C19.2782 3.93715 18.5627 3.7395 17.8166 3.7395Z" transform="translate(39.3703)" fill="#FFE6C1"/>
<path d="M48.7474 7.50401L37.4948 0L9.36335 10.1679C6.91894 11.0465 4.81634 12.294 3.22332 13.8108C1.63031 15.3276 0.590998 17.0717 0.188323 18.9039C-0.214352 20.7361 0.0307614 22.6057 0.904102 24.3636C1.77744 26.1214 3.25483 27.7188 5.21836 29.0282C7.1819 30.3376 9.57721 31.3228 12.2132 31.9052C14.8491 32.4876 17.6527 32.6511 20.4002 32.3826C23.1477 32.114 25.7631 31.4209 28.0375 30.3586C30.312 29.2963 32.1826 27.8941 33.5002 26.264L48.7474 7.50401Z" transform="translate(0 7.49187)" fill="#DC562C"/>
<path d="M12.4725 9.56819C12.2257 9.56914 11.981 9.53759 11.7525 9.47535C11.524 9.41311 11.3162 9.32141 11.1409 9.20549L0.45096 2.06418C0.143715 1.82492 -0.0168327 1.51716 0.00139867 1.2024C0.01963 0.887636 0.215297 0.589051 0.549302 0.366314C0.883306 0.143577 1.33104 0.0130907 1.80305 0.000932722C2.27505 -0.0112252 2.73655 0.0958402 3.09532 0.300733L13.7853 7.42955C14.0486 7.60373 14.2286 7.82607 14.3025 8.06847C14.3763 8.31087 14.3408 8.56243 14.2003 8.79134C14.0597 9.02025 13.8206 9.21624 13.513 9.35452C13.2055 9.49279 12.8434 9.56715 12.4725 9.56819V9.56819Z" transform="translate(15.0826 20.4353)" fill="#8F2C0E"/>
<path d="M12.66 9.68074C12.4132 9.68169 12.1685 9.65014 11.94 9.5879C11.7115 9.52567 11.5037 9.43396 11.3285 9.31805L0.45096 2.06417C0.143715 1.82492 -0.0168327 1.51716 0.00139867 1.2024C0.01963 0.887634 0.215297 0.589051 0.549302 0.366314C0.883306 0.143576 1.33105 0.0130907 1.80305 0.000932721C2.27505 -0.0112252 2.73655 0.0958401 3.09532 0.300732L13.9728 7.55461C14.2298 7.72941 14.4043 7.95068 14.4745 8.19097C14.5447 8.43126 14.5076 8.68002 14.3678 8.90639C14.2281 9.13276 13.9917 9.3268 13.6882 9.46445C13.3846 9.6021 13.0271 9.6773 12.66 9.68074Z" transform="translate(22.9594 15.0697)" fill="#8F2C0E"/>
<path d="M12.66 9.68074C12.4132 9.68169 12.1685 9.65014 11.94 9.5879C11.7115 9.52566 11.5037 9.43396 11.3285 9.31804L0.450962 2.06417C0.143716 1.82492 -0.0168327 1.51716 0.00139866 1.2024C0.01963 0.887632 0.215299 0.58905 0.549303 0.366313C0.883308 0.143576 1.33105 0.0130907 1.80305 0.00093272C2.27505 -0.0112252 2.73655 0.0958401 3.09532 0.300732L13.9728 7.5546C14.2373 7.72953 14.4177 7.95303 14.491 8.19659C14.5643 8.44016 14.5271 8.69276 14.3842 8.92218C14.2414 9.15161 13.9993 9.34747 13.6889 9.4848C13.3785 9.62212 13.0138 9.69469 12.6413 9.69324L12.66 9.68074Z" transform="translate(7.20587 25.5756)" fill="#8F2C0E"/>
</svg>
